<?xml version="1.0" encoding="utf-8"?>
<!-- Generator: Adobe Illustrator 16.0.0, SVG Export Plug-In . SVG Version: 6.00 Build 0)  -->
<!DOCTYPE svg PUBLIC "-//W3C//DTD SVG 1.1//EN" "http://www.w3.org/Graphics/SVG/1.1/DTD/svg11.dtd">
<svg version="1.1" id="Layer_1" xmlns="http://www.w3.org/2000/svg" xmlns:xlink="http://www.w3.org/1999/xlink" x="0px" y="0px"
     width="120px" height="120px" viewBox="0 0 120 120" enable-background="new 0 0 120 120" xml:space="preserve">
<path fill="#333" d="M120,22.784c-4.415,1.958-9.16,3.282-14.141,3.876c5.084-3.047,8.987-7.872,10.826-13.621
    c-4.758,2.821-10.027,4.87-15.635,5.975c-4.49-4.785-10.889-7.775-17.971-7.775c-13.596,0-24.619,11.023-24.619,24.619
    c0,1.93,0.218,3.809,0.637,5.611C38.637,40.442,20.497,30.641,8.354,15.746c-2.119,3.636-3.333,7.865-3.333,12.377
    c0,8.542,4.347,16.077,10.953,20.492c-4.036-0.128-7.832-1.235-11.151-3.08c-0.001,0.103-0.002,0.206-0.002,0.31
    c0,11.929,8.486,21.879,19.749,24.141c-2.066,0.562-4.241,0.863-6.486,0.863c-1.586,0-3.129-0.154-4.632-0.441
    c3.133,9.78,12.225,16.899,22.998,17.098c-8.426,6.603-19.042,10.538-30.576,10.538c-1.987,0-3.947-0.115-5.873-0.344
    c10.896,6.986,23.836,11.062,37.739,11.062c45.284,0,70.047-37.515,70.047-70.048c0-1.067-0.024-2.129-0.071-3.185
    C112.525,32.057,116.699,27.721,120,22.784z"/>
</svg>
