<?xml version="1.0" encoding="utf-8"?>
<!-- Generator: Adobe Illustrator 16.0.0, SVG Export Plug-In . SVG Version: 6.00 Build 0)  -->
<!DOCTYPE svg PUBLIC "-//W3C//DTD SVG 1.1//EN" "http://www.w3.org/Graphics/SVG/1.1/DTD/svg11.dtd">
<svg version="1.1" id="Layer_1" xmlns="http://www.w3.org/2000/svg" xmlns:xlink="http://www.w3.org/1999/xlink" x="0px" y="0px"
     width="120px" height="120px" viewBox="0 0 120 120" enable-background="new 0 0 120 120" xml:space="preserve">
<path fill="#333" d="M115.898,17.332c-0.302-0.059-0.569-0.188-0.896-0.188H4.997c-0.293,0-0.573,0.13-0.875,0.188L60,71.887
    L115.898,17.332z M119.707,20.906L80.081,60.938l39.685,37.868c0.101-0.436,0.234-0.854,0.234-1.306v-75
    C120,21.936,119.85,21.421,119.707,20.906z M0.31,20.898C0.171,21.413,0,21.936,0,22.501v75c0,0.469,0.155,0.887,0.255,1.322
    l39.68-37.885L0.31,20.898z M61.607,77.428c-0.469,0.419-1.038,0.62-1.607,0.62c-0.557,0-1.13-0.201-1.586-0.62L43.79,64.387
    L3.788,102.59c0.394,0.117,0.791,0.268,1.209,0.268h110.006c0.436,0,0.846-0.15,1.23-0.268L76.239,64.387L61.607,77.428z"/>
</svg>
