<?xml version="1.0" encoding="utf-8"?>
<!-- Generator: Adobe Illustrator 16.0.0, SVG Export Plug-In . SVG Version: 6.00 Build 0)  -->
<!DOCTYPE svg PUBLIC "-//W3C//DTD SVG 1.1//EN" "http://www.w3.org/Graphics/SVG/1.1/DTD/svg11.dtd">
<svg version="1.1" id="Layer_1" xmlns="http://www.w3.org/2000/svg" xmlns:xlink="http://www.w3.org/1999/xlink" x="0px" y="0px"
     width="120px" height="120px" viewBox="0 0 120 120" enable-background="new 0 0 120 120" xml:space="preserve">
<path fill="#333" d="M111.117,0.004H8.857C3.975,0.004,0,3.878,0,8.653v102.685c0,4.773,3.975,8.658,8.857,8.658h102.26
    c4.892,0,8.883-3.885,8.883-8.658V8.653C120,3.878,116.009,0.004,111.117,0.004z M35.589,102.256H17.791V44.984h17.798V102.256z
     M26.698,37.159c-5.708,0-10.324-4.625-10.324-10.315c0-5.691,4.616-10.316,10.324-10.316c5.683,0,10.308,4.616,10.308,10.316
    C37.006,32.535,32.381,37.159,26.698,37.159z M102.251,102.256H84.469v-27.85c0-6.641-0.124-15.182-9.249-15.182
    c-9.267,0-10.683,7.233-10.683,14.7v28.332H46.755V44.984H63.82v7.833h0.242c2.375-4.508,8.182-9.249,16.841-9.249
    c18.023,0,21.348,11.857,21.348,27.272V102.256z"/>
</svg>
