<?xml version="1.0" encoding="utf-8"?>
<!-- Generator: Adobe Illustrator 16.0.0, SVG Export Plug-In . SVG Version: 6.00 Build 0)  -->
<!DOCTYPE svg PUBLIC "-//W3C//DTD SVG 1.1//EN" "http://www.w3.org/Graphics/SVG/1.1/DTD/svg11.dtd">
<svg version="1.1" id="Layer_1" xmlns="http://www.w3.org/2000/svg" xmlns:xlink="http://www.w3.org/1999/xlink" x="0px" y="0px"
     width="120px" height="120px" viewBox="0 0 120 120" enable-background="new 0 0 120 120" xml:space="preserve">
<g style="fill: #333;">
    <path fill-rule="evenodd" clip-rule="evenodd" d="M60,1.482c-33.133,0-60,26.862-60,60
        c0,26.511,17.192,49,41.032,56.935c2.998,0.556,4.1-1.302,4.1-2.888c0-1.43-0.056-6.157-0.081-11.17
        c-16.692,3.629-20.215-7.079-20.215-7.079c-2.729-6.936-6.662-8.779-6.662-8.779c-5.444-3.724,0.41-3.648,0.41-3.648
        c6.024,0.424,9.197,6.185,9.197,6.185c5.352,9.172,14.037,6.521,17.461,4.987c0.539-3.877,2.094-6.525,3.81-8.023
        c-13.327-1.516-27.337-6.662-27.337-29.652c0-6.55,2.344-11.903,6.183-16.104c-0.623-1.512-2.677-7.614,0.581-15.879
        c0,0,5.039-1.612,16.504,6.151c4.786-1.33,9.919-1.996,15.018-2.02c5.098,0.023,10.235,0.69,15.03,2.02
        c11.453-7.763,16.482-6.151,16.482-6.151c3.268,8.265,1.213,14.367,0.592,15.879c3.846,4.202,6.174,9.554,6.174,16.104
        c0,23.046-14.035,28.119-27.396,29.605c2.152,1.861,4.068,5.513,4.068,11.109c0,8.028-0.068,14.49-0.068,16.466
        c0,1.598,1.08,3.468,4.121,2.88c23.826-7.942,40.996-30.426,40.996-56.927C119.998,28.344,93.135,1.482,60,1.482z"/>
    <path d="M22.725,87.629c-0.132,0.299-0.602,0.388-1.028,0.183c-0.436-0.196-0.679-0.602-0.539-0.9
        c0.129-0.307,0.599-0.393,1.033-0.188C22.627,86.919,22.875,87.33,22.725,87.629L22.725,87.629z M21.987,87.082"/>
    <path d="M25.156,90.34c-0.286,0.264-0.846,0.142-1.226-0.277c-0.393-0.419-0.466-0.979-0.175-1.248
        c0.295-0.264,0.837-0.14,1.23,0.277C25.378,89.516,25.455,90.07,25.156,90.34L25.156,90.34z M24.583,89.725"/>
    <path d="M27.521,93.794c-0.367,0.257-0.969,0.018-1.34-0.516c-0.368-0.534-0.368-1.175,0.008-1.431
        c0.372-0.256,0.965-0.025,1.342,0.503C27.897,92.894,27.897,93.534,27.521,93.794L27.521,93.794z M27.521,93.794"/>
    <path d="M30.762,97.134c-0.329,0.363-1.029,0.264-1.542-0.23c-0.525-0.483-0.67-1.171-0.342-1.533
        c0.334-0.363,1.039-0.26,1.555,0.23C30.955,96.084,31.113,96.774,30.762,97.134L30.762,97.134z M30.762,97.134"/>
    <path d="M35.234,99.072c-0.146,0.47-0.82,0.684-1.5,0.483c-0.679-0.206-1.123-0.757-0.985-1.23
        c0.141-0.474,0.819-0.696,1.503-0.483C34.929,98.048,35.375,98.593,35.234,99.072L35.234,99.072z M35.234,99.072"/>
    <path d="M40.144,99.432c0.017,0.495-0.561,0.904-1.273,0.914c-0.717,0.016-1.298-0.385-1.306-0.871
        c0-0.501,0.563-0.906,1.28-0.918C39.559,98.543,40.144,98.94,40.144,99.432L40.144,99.432z M40.144,99.432"/>
    <path d="M44.712,98.653c0.086,0.483-0.41,0.979-1.118,1.11c-0.696,0.128-1.341-0.171-1.431-0.648
        c-0.086-0.495,0.419-0.991,1.114-1.12C43.988,97.873,44.623,98.162,44.712,98.653L44.712,98.653z M44.712,98.653"/>
</g>
</svg>
